<svg version="1" xmlns="http://www.w3.org/2000/svg" width="1217.333" height="1217.333" viewBox="0 0 913.000000 913.000000"><path d="M430 .7C287 9.4 156.6 84.1 77.5 202.5 56 234.8 40 266 27.6 300.2l-4.5 12.4 3.5 6.9c4.6 9.6 6.4 17.3 6.4 28 0 10.8-1.9 19.2-6.1 28l-3.2 6.4 5.1 5.6c6.2 6.8 9.8 14.1 11.2 22.9 1.6 10.4-1.1 22.3-7.1 30.7l-2.1 3 5.9 6.2c3.2 3.4 7.6 9 9.8 12.4 3.7 5.8 4.1 6.1 7 5.5 1.6-.4 7.3-.7 12.5-.7 15.1.1 27 5.3 37.8 16.8 16 17.1 18.6 42.3 6.5 63.8-.2.3 3 2.2 7 4.2 9 4.4 14.7 10.3 19 19.5 3 6.2 3.2 7.5 3.2 17.2s-.2 11-3.1 17c-1.7 3.6-5 8.6-7.3 11.2l-4.1 4.6 1.9 4.9c2.8 7.3 5.2 18.8 5.9 28.7l.7 8.9 4.4-3.7c13.7-11.5 32.6-14.5 49.9-8l7.4 2.7 25.9-25.9 25.9-25.8-21.9-22.1c-24.1-24.2-25.4-26.1-23.2-34.2 1.4-5 6.6-9.9 11.5-10.8 7.6-1.5 8.8-.6 32.6 23.1l22.6 22.4 7.9-8 7.9-8-14.1-14.2c-11.5-11.7-14.3-15-14.8-18-1.8-9.8 4.7-17.8 14.5-17.8 2.3 0 5.3.6 6.8 1.4 1.5.8 8.3 7.1 15.2 14 6.9 6.9 12.9 12.6 13.5 12.6.6 0 4.2-3.2 8-7l7-7-14.8-14.8-14.8-14.8 2.1-5c1.2-2.7 4.6-10.1 7.6-16.5l5.4-11.5-8.6-20c-4.8-10.9-9.1-20.4-9.8-21-.6-.6-20.3-9.9-43.9-20.5L201 386.5l28.2-28.2 28.3-28.2 65-2.1c35.8-1.1 67.5-2 70.7-2h5.6l10.9-12.8c44.9-52.5 98.5-102.4 155.3-144.7 25.9-19.3 74-50.1 95-61l2.7-1.4 7.9 12.2c34.9 54 77.7 97.5 131.1 133l18.1 12-3.1 5.6c-33.8 60.7-76.9 119.4-127.3 173.6-23.4 25.1-58.8 58.8-82.4 78.5-3.6 2.9-6.9 5.7-7.4 6.2-.6.4-1.9 30.9-3.2 70.4l-2.1 69.6-27.9 27.9C551.1 710.4 538.3 723 538 723c-.3 0-9.3-19.4-20-43.1-16-35.4-19.9-43.3-22.1-44.5-5.9-3-35.2-15.4-36.5-15.4-.8 0-3.8 1.2-6.7 2.7-2.9 1.4-10.1 4.8-16.2 7.4l-11 4.8-15.5-15.4-15.5-15.5-7.5 7.5-7.5 7.5 14.2 14.3c7.7 7.8 14.6 15.2 15.2 16.4 1.9 3.7 1.3 10.7-1.2 14.4-3 4.5-10 7.4-15.3 6.4-3.3-.6-6.3-3-18.9-15.6L358.4 640l-7.9 8-7.9 8 23.1 23.2c24.9 25 25.4 25.9 23.9 34.3-.9 4.6-6.5 10.2-11.2 11.1-7.9 1.5-10.2-.2-34.7-24.4l-22.8-22.6-20.7 20.7-20.6 20.6 3 3.3c12 12.8 13.8 33.9 4.3 49-3.8 5.8-10.4 12-16.1 14.9-2.3 1.2-4.5 2.3-4.7 2.5-.2.1.6 1.5 1.7 3.1 1 1.5 3 4.8 4.2 7.3 1.2 2.5 2.3 4.6 2.5 4.7.1.2 3.6-1.5 7.7-3.6 10.5-5.5 20.6-7.5 32.8-6.8 9.6.6 9.7.6 10.9-1.9 1.7-3.8 9.7-12 15.2-15.5 14.5-9.2 35.3-9.2 49.8 0 14.4 9.3 23.1 26.2 21.8 42.6l-.5 7h13.1c14.7.1 23.9 2.1 34.6 7.5 5.8 2.9 5.9 2.9 7.7.9 1-1.1 5.2-3.6 9.3-5.7 7.1-3.5 8-3.7 17-3.7 8.7 0 10.2.3 16.3 3.2 3.7 1.7 8.8 5.2 11.3 7.8 5.3 5.2 10.2 14.9 11.1 21.7.7 5.2 1.6 5.8 9.5 5.8 15.2 0 39.3 11.3 51.8 24.3l3.4 3.6 11.6-4.1c64.5-22.6 127.5-63.1 175.7-113.1 142.7-148 169.2-372.4 65-549.2l-6.5-11.1 3-7.4c1.7-4.1 5.9-16.1 9.4-26.5C875.2 120.2 880.6 83.7 872 67c-2.6-5-9.7-11.5-15.5-14.2-4.5-2.1-6.4-2.3-20.5-2.3-13 0-17.6.5-28.8 2.8-21.3 4.5-49.7 12.8-77.3 22.9l-13.7 4.9-11.3-7.4C631.3 25.5 541.9-.7 454 .2c-10.2.1-21 .3-24 .5z"/><path d="M570.7 253c-28.9 4.9-53.2 23.5-65.6 50.2-6.2 13.3-7.6 20.1-7.6 36.8.1 16.8 1.9 25 8.5 38.5 11.4 23.1 33.4 40.7 58.4 46.6 10.8 2.5 27.7 2.7 38.1.5 33.7-7.2 59.9-32.8 67.6-66.2 3.1-13.4 2.4-33-1.6-45.4-10.2-31.8-35.5-54.3-68.3-60.6-7.9-1.5-21.7-1.7-29.5-.4zm25.5 30.1c8.1 1.7 20.9 8.2 27.2 13.9 18.8 17.2 24.2 45.9 13 68.3-14.7 29-50.1 40.5-78.8 25.5-8.4-4.5-20.3-16.5-24.4-24.8-15.2-31-1-68.2 30.6-80 10.5-4 22.1-5 32.4-2.9z"/></svg>